<svg id="Layer_1" data-name="Layer 1" xmlns="http://www.w3.org/2000/svg" viewBox="0 0 188.64 188.64"><title>fresco_logo</title><circle cx="94.32" cy="94.32" r="94.32" style="fill:#ff6d00"/><polygon points="49.82 43.65 49.82 71.65 67.82 58.65 67.82 30.65 49.82 43.65" style="fill:none;stroke:#fff;stroke-linecap:round;stroke-linejoin:round;stroke-width:7px"/><polygon points="82.82 43.65 82.82 71.65 100.82 58.65 100.82 30.65 82.82 43.65" style="fill:none;stroke:#fff;stroke-linecap:round;stroke-linejoin:round;stroke-width:7px"/><polygon points="49.82 87.65 49.82 115.65 67.82 102.65 67.82 74.65 49.82 87.65" style="fill:none;stroke:#fff;stroke-linecap:round;stroke-linejoin:round;stroke-width:7px"/><polygon points="49.82 131.65 49.82 159.65 67.82 146.65 67.82 118.65 49.82 131.65" style="fill:none;stroke:#fff;stroke-linecap:round;stroke-linejoin:round;stroke-width:7px"/><polygon points="82.82 87.65 82.82 115.65 100.82 102.65 100.82 74.65 82.82 87.65" style="fill:none;stroke:#fff;stroke-linecap:round;stroke-linejoin:round;stroke-width:7px"/><polygon points="115.82 43.65 115.82 71.65 133.82 58.65 133.82 30.65 115.82 43.65" style="fill:none;stroke:#fff;stroke-linecap:round;stroke-linejoin:round;stroke-width:7px"/></svg>