<svg id="Layer_1" data-name="Layer 1" xmlns="http://www.w3.org/2000/svg" xmlns:xlink="http://www.w3.org/1999/xlink" viewBox="0 0 188.64 188.64"><defs><linearGradient id="linear-gradient" x1="27.63" y1="161.01" x2="161.01" y2="27.63" gradientUnits="userSpaceOnUse"><stop offset="0" stop-color="#ff6700" stop-opacity="0"/><stop offset="1" stop-color="#ff6700"/></linearGradient></defs><title>fresco_logo_half_transparent</title><circle cx="94.32" cy="94.32" r="94.32" style="fill:url(#linear-gradient)"/><polygon points="49.82 43.65 49.82 71.65 67.82 58.65 67.82 30.65 49.82 43.65" style="fill:none;stroke:#fff;stroke-linecap:round;stroke-linejoin:round;stroke-width:7px"/><polygon points="82.82 43.65 82.82 71.65 100.82 58.65 100.82 30.65 82.82 43.65" style="fill:none;stroke:#fff;stroke-linecap:round;stroke-linejoin:round;stroke-width:7px"/><polygon points="49.82 87.65 49.82 115.65 67.82 102.65 67.82 74.65 49.82 87.65" style="fill:none;stroke:#fff;stroke-linecap:round;stroke-linejoin:round;stroke-width:7px"/><polygon points="49.82 131.65 49.82 159.65 67.82 146.65 67.82 118.65 49.82 131.65" style="fill:none;stroke:#fff;stroke-linecap:round;stroke-linejoin:round;stroke-width:7px"/><polygon points="82.82 87.65 82.82 115.65 100.82 102.65 100.82 74.65 82.82 87.65" style="fill:none;stroke:#fff;stroke-linecap:round;stroke-linejoin:round;stroke-width:7px"/><polygon points="115.82 43.65 115.82 71.65 133.82 58.65 133.82 30.65 115.82 43.65" style="fill:none;stroke:#fff;stroke-linecap:round;stroke-linejoin:round;stroke-width:7px"/></svg>